<svg width="235" height="60" viewBox="0 0 235 60" fill="none" xmlns="http://www.w3.org/2000/svg">
<g clip-path="url(#clip0_770_6146)">
<path d="M153.799 40.1685C149.621 40.1685 146.802 37.0811 146.802 32.593C146.802 28.1048 149.621 25.0174 153.799 25.0174C157.978 25.0174 160.797 28.1048 160.797 32.593C160.797 37.0811 157.964 40.1685 153.799 40.1685ZM153.799 20.615C147.117 20.615 141.707 25.975 141.707 32.593C141.707 39.2109 147.117 44.5709 153.799 44.5709C160.482 44.5709 165.949 39.2109 165.949 32.593C165.949 25.975 160.469 20.615 153.799 20.615Z" fill="#3E5744"/>
<path d="M113.53 21.101H108.436V42.6556C108.436 43.4275 109.066 44.0707 109.853 44.0707H122.846V39.8827H113.53V21.101Z" fill="#3E5744"/>
<path d="M131.132 21.101H126.038V42.6556C126.038 43.4275 126.667 44.0707 127.455 44.0707H141.75V39.8827H131.132V21.101Z" fill="#3E5744"/>
<path d="M88.8022 36.4808L92.7232 27.6045L96.6586 36.4808H88.8022ZM94.1687 21.101H91.2922C90.7341 21.101 90.2332 21.4298 90.0043 21.93L80.0156 44.0707H85.4393L87.0134 40.5259H98.4475L100.021 44.0707H105.445L95.4562 21.93C95.2274 21.4298 94.7265 21.101 94.1687 21.101Z" fill="#3E5744"/>
<path d="M183.723 21.101L177.383 31.521L171.044 21.101H165.134L174.435 35.6661C174.721 36.1235 174.879 36.638 174.879 37.1812V44.0707H179.902V37.1812C179.902 36.638 180.059 36.1235 180.345 35.6661L189.647 21.101H183.723Z" fill="#3E5744"/>
<path d="M48.49 18.0708C49.2484 17.6277 50.1643 17.6277 50.9371 18.0708L52.0962 18.7425C51.4093 19.0999 50.9227 19.7288 50.7367 20.5006L47.3881 35.08L47.2736 35.2801V20.1719C47.2593 19.3 47.7172 18.5139 48.49 18.0708ZM47.3165 38.0959C47.2879 38.0388 47.2164 37.8815 47.3165 37.71L50.15 32.8074L56.3893 22.0015L56.5324 21.7585C56.6326 21.587 56.8043 21.5584 56.8759 21.5584C56.9474 21.5584 57.1191 21.5727 57.2193 21.7585L58.4786 23.9311L66.3063 37.467L66.4495 37.71C66.4924 37.7815 66.5067 37.8387 66.5067 37.9101C66.5067 37.9959 66.4781 38.0674 66.4495 38.1102C66.4208 38.1674 66.3206 38.3103 66.106 38.3103H63.5874H47.9462H47.66C47.4597 38.296 47.3595 38.1531 47.3165 38.0959ZM67.5371 37.0811L61.6269 26.8613L69.5691 34.2367C69.9412 34.5798 70.0986 35.0943 69.9841 35.5946C69.8696 36.0949 69.5119 36.4808 69.0253 36.638L67.5371 37.0811ZM71.2863 35.3659C71.315 34.5941 71.0145 33.8508 70.442 33.3076L59.4803 23.1306L59.3658 22.9163L72.4455 30.4775C73.2039 30.9206 73.6619 31.7068 73.6619 32.593C73.6619 33.4791 73.2039 34.2653 72.4455 34.7084L71.2863 35.3659ZM55.4448 21.1153L49.5347 31.3494L51.9531 20.7865C52.0676 20.2863 52.4253 19.9003 52.9119 19.7574C53.3984 19.6002 53.9136 19.7288 54.2857 20.0718L55.4448 21.1153ZM47.6457 39.5539C47.66 39.5539 47.66 39.5539 47.6457 39.5539H59.466L49.091 42.7413C48.6045 42.8986 48.0893 42.7699 47.7029 42.4269C47.3309 42.0839 47.1734 41.5693 47.2879 41.069L47.6457 39.5539ZM47.2593 43.6562C47.9176 44.0707 48.7047 44.185 49.4631 43.942L63.7734 39.5539H64.0167L50.9227 47.1009C50.1643 47.544 49.2484 47.544 48.4757 47.1009C47.7172 46.6578 47.2593 45.8717 47.2593 44.9854V43.6562ZM51.5667 16.9702C50.4076 16.2984 49.0195 16.2984 47.8603 16.9702C46.6869 17.642 46 18.8426 46 20.1719V37.8815V37.8958V37.9101V44.9854C46 46.329 46.6869 47.5154 47.8603 48.1872C49.0195 48.859 50.4076 48.859 51.5667 48.1872L66.9074 39.3395C66.9217 39.3252 66.936 39.3252 66.9503 39.3109L73.0751 35.7804C74.2343 35.1086 74.9212 33.908 74.9212 32.5787C74.9212 31.2351 74.2343 30.0344 73.0751 29.3769L57.7202 20.5149C57.7058 20.5149 57.7058 20.5006 57.6915 20.5006L51.5667 16.9702Z" fill="#3E5744"/>
</g>
<defs>
<clipPath id="clip0_770_6146">
<rect width="143.647" height="33" fill="white" transform="translate(46 16)"/>
</clipPath>
</defs>
</svg>
