<?xml version="1.0" encoding="UTF-8"?> <svg xmlns="http://www.w3.org/2000/svg" xmlns:xlink="http://www.w3.org/1999/xlink" version="1.1" id="Layer_2_00000069370512784966570390000012520084890544399780_" x="0px" y="0px" viewBox="0 0 257.5 112" style="enable-background:new 0 0 257.5 112;" xml:space="preserve"> <style type="text/css"> .st0{fill:#3E5744;} .st1{clip-path:url(#SVGID_00000149340568997337493320000016001359551409408677_);} .st2{clip-path:url(#SVGID_00000034089472544888690090000004711507500573863849_);} </style> <g id="Layer_1-2"> <path class="st0" d="M163.5,25.8c-3.7,5,3.2,9.9,3.2,9.9c-0.2-6.8,9.9-7,19.9-6.5c1.2-1.2,2.1-2.4,3.1-3.5 c-3.1-0.9-10.5-3.5-16.9-3.5C168.9,22.2,165.4,23.1,163.5,25.8"></path> <g> <g> <path id="SVGID_1_" class="st0" d="M163.5,25.8c-3.7,5,3.2,9.9,3.2,9.9c-0.2-6.8,9.9-7,19.9-6.5c1.2-1.2,2.1-2.4,3.1-3.5 c-3.1-0.9-10.5-3.5-16.9-3.5C168.9,22.2,165.4,23.1,163.5,25.8"></path> </g> <g> <defs> <path id="SVGID_00000098933712836428955210000005136756662033043379_" d="M163.5,25.8c-3.7,5,3.2,9.9,3.2,9.9 c-0.2-6.8,9.9-7,19.9-6.5c1.2-1.2,2.1-2.4,3.1-3.5c-3.1-0.9-10.5-3.5-16.9-3.5C168.9,22.2,165.4,23.1,163.5,25.8"></path> </defs> <clipPath id="SVGID_00000062172845589325715480000005461082274789684631_"> <use xlink:href="#SVGID_00000098933712836428955210000005136756662033043379_" style="overflow:visible;"></use> </clipPath> <g style="clip-path:url(#SVGID_00000062172845589325715480000005461082274789684631_);"> <rect x="159.7" y="22.2" class="st0" width="29.9" height="13.5"></rect> </g> </g> </g> <path class="st0" d="M197.5,27.7c2.5-2.5,6.6-6.7,10.4-9.8c5.7-4.8,8.8-5.2,10.2-5.2c3.7-0.1,4,7.5-2.3,12.6 c-2.7,2.1-6.6,3.3-11.2,3.3C202.3,28.5,199.9,28.3,197.5,27.7 M195.4,19.8c-0.2,0.3-4.6,6-4.6,6.1c-1.9,2.5-5.2,6-7.9,7.9 c-3.6,2.8-7.6,4.6-11.2,4.4c-5-0.3-6.5-1.9-8-3.5c2.2,3.9,7.7,5,7.7,5c11.5,2.6,23.8-9.5,23.8-9.5c5.3,0.6,9.3,0.3,9.3,0.3 c8.4-0.5,11.7-3.5,15-6.7c4.5-4.4,6.6-9.8,6.6-14.1l0,0c0-3.5-1.4-6.3-3.9-7.1c-1.1-0.4-2.2-0.5-3.3-0.5 C211,2,202.5,10.2,195.4,19.8"></path> <g> <g> <path id="SVGID_00000045597697510287603720000004590898527497973655_" class="st0" d="M197.5,27.7c2.5-2.5,6.6-6.7,10.4-9.8 c5.7-4.8,8.8-5.2,10.2-5.2c3.7-0.1,4,7.5-2.3,12.6c-2.7,2.1-6.6,3.3-11.2,3.3C202.3,28.5,199.9,28.3,197.5,27.7 M195.4,19.8 c-0.2,0.3-4.6,6-4.6,6.1c-1.9,2.5-5.2,6-7.9,7.9c-3.6,2.8-7.6,4.6-11.2,4.4c-5-0.3-6.5-1.9-8-3.5c2.2,3.9,7.7,5,7.7,5 c11.5,2.6,23.8-9.5,23.8-9.5c5.3,0.6,9.3,0.3,9.3,0.3c8.4-0.5,11.7-3.5,15-6.7c4.5-4.4,6.6-9.8,6.6-14.1l0,0 c0-3.5-1.4-6.3-3.9-7.1c-1.1-0.4-2.2-0.5-3.3-0.5C211,2,202.5,10.2,195.4,19.8"></path> </g> <g> <defs> <path id="SVGID_00000049911030282401249710000005347306098362461872_" d="M197.5,27.7c2.5-2.5,6.6-6.7,10.4-9.8 c5.7-4.8,8.8-5.2,10.2-5.2c3.7-0.1,4,7.5-2.3,12.6c-2.7,2.1-6.6,3.3-11.2,3.3C202.3,28.5,199.9,28.3,197.5,27.7 M195.4,19.8 c-0.2,0.3-4.6,6-4.6,6.1c-1.9,2.5-5.2,6-7.9,7.9c-3.6,2.8-7.6,4.6-11.2,4.4c-5-0.3-6.5-1.9-8-3.5c2.2,3.9,7.7,5,7.7,5 c11.5,2.6,23.8-9.5,23.8-9.5c5.3,0.6,9.3,0.3,9.3,0.3c8.4-0.5,11.7-3.5,15-6.7c4.5-4.4,6.6-9.8,6.6-14.1l0,0 c0-3.5-1.4-6.3-3.9-7.1c-1.1-0.4-2.2-0.5-3.3-0.5C211,2,202.5,10.2,195.4,19.8"></path> </defs> <clipPath id="SVGID_00000168808612779868184840000000900149612292035001_"> <use xlink:href="#SVGID_00000049911030282401249710000005347306098362461872_" style="overflow:visible;"></use> </clipPath> <g style="clip-path:url(#SVGID_00000168808612779868184840000000900149612292035001_);"> <rect x="163.6" y="2" class="st0" width="62.4" height="40.2"></rect> </g> </g> </g> <path class="st0" d="M177,51.6c-0.4-1.2-1.1-2.2-1.9-3.1c-0.8-0.9-1.8-1.6-2.9-2.1c-1.1-0.5-2.3-0.8-3.6-0.8s-2.5,0.3-3.6,0.8 s-2.1,1.2-3,2.1s-1.5,1.9-2,3.1c-0.5,1.2-0.7,2.8-0.8,4c-0.1,2.3,1.1,9.8,9.5,9.8c5,0,7.7-3,7.9-3.2l0.4-0.5l-2.8-2.1 c-0.4,0.5-1.9,2.3-5.5,2.3c-3.9,0-5.3-3.1-5.4-4.8h14.4C177.5,57.1,177.8,53.9,177,51.6 M163.1,54c0.1-0.5,0.2-1.2,0.5-1.7l0,0 c0.3-0.7,0.7-1.2,1.2-1.7s1.1-0.8,1.7-1.1c0.6-0.3,1.3-0.4,2-0.4s1.4,0.1,2,0.4c0.6,0.3,1.2,0.6,1.6,1.1c0.5,0.5,0.9,1,1.1,1.7 c0.2,0.5,0.4,1.2,0.4,1.8L163.1,54L163.1,54z"></path> <path class="st0" d="M45.8,60.3c0.4,0.5,0.8,1,1.2,1.5s0.8,1,1.2,1.5c-0.9,0.7-1.8,1.2-2.9,1.6c-1.1,0.4-2.2,0.6-3.5,0.6 c-1.3,0-2.6-0.2-3.7-0.7c-1.2-0.5-2.2-1.1-3.1-2c-0.9-0.8-1.7-1.8-2.2-2.9c-0.6-1.1-0.9-2.3-1.1-3.5c-0.2-1.5-0.1-2.9,0.4-4.3 c0.5-1.3,1.2-2.5,2.1-3.5c1-1,2.1-1.8,3.4-2.4c1.3-0.6,2.7-0.9,4.3-0.9c1.3,0,2.5,0.2,3.6,0.6c1.1,0.4,2.1,0.9,3,1.6l-2.5,3 c-0.5-0.4-1.1-0.8-1.8-1s-1.4-0.3-2.2-0.3c-1,0-1.9,0.2-2.7,0.5c-0.8,0.3-1.5,0.8-2.1,1.5c-0.6,0.7-1,1.4-1.2,2.2 c-0.2,0.8-0.6,1.8-0.5,2.7c0.2,1.6,0.9,2.9,2,4s2.6,1.6,4.3,1.6c0.8,0,1.5-0.1,2.2-0.3C44.7,61.1,45.3,60.8,45.8,60.3"></path> <path class="st0" d="M61.3,55.4c0-1.4,0.3-2.7,0.8-3.9s1.2-2.3,2.2-3.2c0.9-0.9,2-1.6,3.2-2.2c1.2-0.5,2.6-0.8,4-0.8 c1.3,0,2.6,0.2,3.7,0.7c1.2,0.5,2.2,1.1,3.1,1.9c0.9,0.8,1.6,1.8,2.2,2.9c0.6,1.1,0.9,2.3,1.1,3.5c0.2,1.5,0.1,3-0.3,4.3 c-0.4,1.3-1.1,2.5-2,3.5c-0.9,1-2,1.8-3.4,2.4c-1.4,0.6-2.8,0.9-4.3,0.9c-1.4,0-2.7-0.2-4-0.7c-1.2-0.5-2.3-1.2-3.2-2.1 c-0.9-0.9-1.7-2-2.2-3.2S61.3,56.9,61.3,55.4 M65.2,55.5c0,0.9,0.1,1.7,0.5,2.4c0.3,0.8,0.8,1.4,1.3,2s1.2,1,2,1.3s1.6,0.5,2.4,0.5 c0.9,0,1.8-0.2,2.6-0.5s1.5-0.8,2.1-1.5s1-1.4,1.3-2.2c0.3-0.8,0.4-1.7,0.3-2.6c-0.1-0.8-0.3-1.5-0.7-2.2c-0.4-0.7-0.8-1.3-1.4-1.8 c-0.6-0.5-1.2-0.9-2-1.2c-0.7-0.3-1.5-0.4-2.3-0.4c-0.9,0-1.7,0.2-2.4,0.5c-0.8,0.3-1.4,0.8-2,1.3c-0.6,0.6-1,1.2-1.3,2 C65.4,53.8,65.2,54.6,65.2,55.5"></path> <path class="st0" d="M96.3,47.2l-2,3c0,0-0.2-0.1-0.4-0.2s-0.5-0.2-0.9-0.4c-0.3-0.1-1-0.3-1.4-0.3c-1.1-0.3-4.1-0.3-4,1.7 c0,0.5,0.3,0.8,0.8,1.2c0.4,0.3,1.1,0.7,1.7,1s1.3,0.6,2,0.9s1.3,0.7,1.9,1.1c0.6,0.4,1.1,1,1.6,1.6s0.7,1.4,0.8,2.3 c0.1,1,0.1,1.7-0.2,2.5c-0.3,0.8-0.7,1.5-1.3,2.1c-0.6,0.6-1.3,1-2.2,1.4c-0.9,0.3-1.9,0.5-3,0.5c-1.3,0-2.5-0.2-3.8-0.6 c-1.3-0.4-2.8-1-3.5-1.8c0.2-0.2,2.4-2.9,2.4-2.9s2.6,1.7,4.9,1.7c0.8,0,1.5-0.2,2-0.6c0.5-0.4,0.8-1,0.7-1.7 c-0.1-0.5-0.3-0.9-0.7-1.2c-0.4-0.3-0.9-0.6-1.5-0.9c-0.6-0.3-1.2-0.5-1.9-0.8c-0.7-0.3-1.5-0.6-2.1-1c-0.6-0.4-2.2-1.5-2.5-4 c-0.3-2.4,0.9-6.2,6.4-6.2C90.9,45.4,93.8,45.3,96.3,47.2"></path> <path class="st0" d="M111.2,47.2l-2.1,3c0,0-0.2-0.1-0.4-0.2s-0.5-0.2-0.9-0.4c-0.3-0.1-1-0.3-1.4-0.3c-1.1-0.3-4.1-0.3-3.9,1.7 c0,0.5,0.3,0.8,0.8,1.2c0.4,0.3,1.1,0.7,1.7,1s1.3,0.6,2,0.9s1.3,0.7,1.9,1.1c0.6,0.4,1.1,1,1.6,1.6c0.4,0.6,0.7,1.4,0.8,2.3 c0.1,1,0.1,1.7-0.2,2.5c-0.3,0.8-0.7,1.5-1.3,2.1c-0.6,0.6-1.3,1-2.2,1.4s-1.9,0.5-3.1,0.5c-1.3,0-2.5-0.2-3.8-0.6s-2.8-1-3.5-1.8 c0.2-0.2,2.4-2.9,2.4-2.9s2.6,1.7,4.9,1.7c0.8,0,1.5-0.2,2-0.6c0.6-0.4,0.8-1,0.7-1.7c-0.1-0.5-0.3-0.9-0.7-1.2 c-0.4-0.3-0.9-0.6-1.5-0.9s-1.2-0.5-1.9-0.8s-1.5-0.6-2.1-1s-2.2-1.5-2.6-4c-0.3-2.4,0.9-6.2,6.4-6.2 C105.8,45.4,108.6,45.3,111.2,47.2"></path> <path class="st0" d="M133.6,40.3c-0.1-0.8,0.1-1.4,0.6-1.9s1.1-0.8,1.7-0.8c0.5,0,1,0.2,1.5,0.6c0.5,0.4,0.8,1,0.8,1.6 c0.1,0.8-0.1,1.4-0.6,1.9s-1.1,0.7-1.7,0.7c-0.6,0-1.1-0.2-1.5-0.6C134,41.4,133.7,40.9,133.6,40.3 M138,65.1h-4l-0.1-19.2h4 L138,65.1z"></path> <polygon class="st0" points="148.8,64.9 151.2,64.9 159.9,45.8 155.4,45.9 150,59.1 144.6,45.9 140,45.8 "></polygon> <path class="st0" d="M189.9,45.9c-3.9,0-5.8,3.9-6,4.6c0-0.8-0.1-1.7-0.1-2.5c-0.1-0.8-0.1-1.2-0.2-2.2H180l0.1,19.2h4v-8.8 c0-3.2,2.1-6.2,5.9-6.2L189.9,45.9L189.9,45.9z"></path> <path class="st0" d="M130.6,45.9c-3.9,0-5.8,3.9-6,4.6c0-0.8-0.1-1.7-0.2-2.5s-0.1-1.2-0.2-2.2h-3.6l0.1,19.2h4v-8.8 c0-3.2,2.1-6.2,5.8-6.2C130.6,50.1,130.6,45.9,130.6,45.9z"></path> <path class="st0" d="M60.7,45.9c-3.9,0-5.8,3.9-6,4.6c0-0.8-0.1-1.7-0.1-2.5c-0.1-0.8-0.1-1.2-0.2-2.2h-3.6L50.9,65h4v-8.8 c0-3.2,2.1-6.2,5.9-6.2L60.7,45.9L60.7,45.9z"></path> </g> </svg> 