<?xml version="1.0" encoding="UTF-8"?>
<svg xmlns="http://www.w3.org/2000/svg" width="24" height="24" viewBox="0 0 24 24" fill="none">
  <rect opacity="0.12" x="3" y="8" width="18" height="14" rx="4" fill="#32A9C2"></rect>
  <path d="M7 8V6.8C7 5.11984 7 4.27976 7.32698 3.63803C7.6146 3.07354 8.07354 2.6146 8.63803 2.32698C9.27976 2 10.1198 2 11.8 2H12.2C13.8802 2 14.7202 2 15.362 2.32698C15.9265 2.6146 16.3854 3.07354 16.673 3.63803C17 4.27976 17 5.11984 17 6.8V8M12 14V16M9.4 22H14.6C16.8402 22 17.9603 22 18.816 21.564C19.5686 21.1805 20.1805 20.5686 20.564 19.816C21 18.9603 21 17.8402 21 15.6V14.4C21 12.1598 21 11.0397 20.564 10.184C20.1805 9.43139 19.5686 8.81947 18.816 8.43597C17.9603 8 16.8402 8 14.6 8H9.4C7.15979 8 6.03968 8 5.18404 8.43597C4.43139 8.81947 3.81947 9.43139 3.43597 10.184C3 11.0397 3 12.1598 3 14.4V15.6C3 17.8402 3 18.9603 3.43597 19.816C3.81947 20.5686 4.43139 21.1805 5.18404 21.564C6.03968 22 7.15979 22 9.4 22Z" stroke="#32A9C2" stroke-width="1.5" stroke-linecap="round"></path>
</svg>
