<?xml version="1.0" encoding="UTF-8"?>
<svg id="Layer_1" data-name="Layer 1" xmlns="http://www.w3.org/2000/svg" xmlns:xlink="http://www.w3.org/1999/xlink" viewBox="0 0 150 150">
  <defs>
    <style>
      .cls-1 {
        fill: url(#linear-gradient);
        stroke-width: 0px;
      }
    </style>
    <linearGradient id="linear-gradient" x1="2.13" y1="66" x2="147.87" y2="66" gradientUnits="userSpaceOnUse">
      <stop offset=".03" stop-color="#00ffe1"/>
      <stop offset="1" stop-color="#11608a"/>
    </linearGradient>
  </defs>
  <path class="cls-1" d="m116.79,49.09c.97-2.84,2.44-8.75-.11-15.46-4.97-13.11-20.74-17.43-22.42-17.86,1.83,1.76,6.71,6.92,7.47,14.71.94,9.6-5.05,16.45-7.06,18.51h-58.91c-18.57,0-33.63,15.06-33.63,33.63s15.06,33.63,33.63,33.63h78.47c18.57,0,33.63-15.06,33.63-33.63s-13.7-32.22-31.08-33.52Zm-70.54,46.37c0,1.38-1.09,2.48-2.48,2.48h-2.95c-1.38,0-2.48-1.09-2.48-2.48v-9.81c0-5.43.29-10.61.52-13.52h-.05c-.43,3.38-1.24,8.04-2.19,12.19l-1.33,5.95c-.33,1.43-1.62,2.43-3.05,2.43h-2.57c-1.43,0-2.71-1-3.05-2.43l-1.33-5.57c-.9-3.76-1.71-9.33-2.14-12.57h-.05c.29,3.05.67,9.09.67,13.66v9.66c0,1.38-1.09,2.48-2.48,2.48h-2.14c-1.38,0-2.48-1.09-2.48-2.48v-28.23c0-1.38,1.09-2.48,2.48-2.48h5.81c1.43,0,2.71,1,3,2.43l2.38,10.71c.71,3.28.81,5.28,1,7.71h.05c.19-2.43.38-4.71.95-7.71l2-10.71c.24-1.38,1.48-2.43,2.9-2.43h6.52c1.38,0,2.48,1.09,2.48,2.48v28.23Zm22.75,0c0,1.38-1.09,2.48-2.47,2.48h-14c-1.38,0-2.48-1.09-2.48-2.48v-28.23c0-1.38,1.1-2.48,2.48-2.48h13.14c1.38,0,2.47,1.09,2.47,2.48v2.05c0,1.38-1.09,2.47-2.47,2.47h-7.28v5.57h5.19c1.38,0,2.48,1.1,2.48,2.48v1.81c0,1.38-1.1,2.47-2.48,2.47h-5.19v6.76h8.14c1.38,0,2.47,1.1,2.47,2.48v2.14Zm21.14,0c0,1.38-1.1,2.48-2.48,2.48h-14c-1.38,0-2.47-1.09-2.47-2.48v-28.23c0-1.38,1.09-2.48,2.47-2.48h13.14c1.38,0,2.48,1.09,2.48,2.48v2.05c0,1.38-1.1,2.47-2.48,2.47h-7.28v5.57h5.19c1.38,0,2.47,1.1,2.47,2.48v1.81c0,1.38-1.09,2.47-2.47,2.47h-5.19v6.76h8.14c1.38,0,2.48,1.1,2.48,2.48v2.14Zm22.61-26.13c0,1.38-1.1,2.48-2.48,2.48h-4.38v23.66c0,1.38-1.09,2.48-2.48,2.48h-3.24c-1.38,0-2.47-1.09-2.47-2.48v-23.66h-4.38c-1.38,0-2.48-1.1-2.48-2.48v-2.09c0-1.38,1.1-2.48,2.48-2.48h16.95c1.38,0,2.48,1.09,2.48,2.48v2.09Zm11.28,29.23c-3.38,0-6.48-.76-8.76-1.71-1.38-.57-1.9-2-1.38-3.29l.76-1.95c.52-1.24,1.95-1.81,3.14-1.29,1.76.76,3.66,1.24,5.43,1.24,2.86,0,4.24-1.28,4.24-3.28s-1.05-2.57-3.67-3.28c-5.52-1.57-9.38-3.62-9.38-10.62s4.62-10.24,10.95-10.24c3.05,0,5.24.43,7.19,1.19,1.19.48,1.81,1.91,1.29,3.14l-.72,1.52c-.62,1.28-2.09,1.95-3.43,1.52-1.09-.33-2.14-.48-3.57-.48-2.19,0-3.24,1.05-3.24,2.57,0,1.76.52,2.52,3.14,3.24,5.43,1.48,10.14,3.1,10.14,10.71,0,6.9-3.19,11-12.14,11Z"/>
</svg>