<?xml version="1.0" encoding="UTF-8"?>
<svg id="Layer_1" data-name="Layer 1" xmlns="http://www.w3.org/2000/svg" xmlns:xlink="http://www.w3.org/1999/xlink" viewBox="0 0 150 150">
  <defs>
    <style>
      .cls-1 {
        letter-spacing: 0em;
      }

      .cls-2 {
        fill: url(#linear-gradient);
        stroke-width: 0px;
      }

      .cls-3 {
        letter-spacing: 0em;
      }

      .cls-4 {
        font-family: JayGothicURW-Reg, 'Jay Gothic URW';
        font-size: 37.75px;
      }
    </style>
    <linearGradient id="linear-gradient" x1="37.67" y1="76.41" x2="149.61" y2="76.41" gradientUnits="userSpaceOnUse">
      <stop offset=".03" stop-color="#00ffe1"/>
      <stop offset="1" stop-color="#11608a"/>
    </linearGradient>
  </defs>
  <text class="cls-4" transform="translate(-1.32 58.69)"><tspan class="cls-3" x="0" y="0">P</tspan><tspan class="cls-1" x="14.91" y="0">an</tspan><tspan class="cls-3" x="41.94" y="0">t</tspan><tspan x="51.91" y="0">heon</tspan></text>
  <path class="cls-2" d="m125.74,63.42c.75-2.18,1.87-6.72-.08-11.88-3.82-10.07-15.93-13.39-17.22-13.72,1.4,1.35,5.16,5.32,5.74,11.3.72,7.37-3.88,12.64-5.42,14.22h-45.25c-14.27,0-25.83,11.57-25.83,25.83s11.57,25.83,25.83,25.83h60.27c14.27,0,25.83-11.57,25.83-25.83s-10.52-24.75-23.87-25.75Zm-54.18,35.62c0,1.06-.84,1.9-1.9,1.9h-2.27c-1.06,0-1.9-.84-1.9-1.9v-7.53c0-4.17.22-8.15.4-10.38h-.04c-.33,2.6-.95,6.18-1.68,9.36l-1.02,4.57c-.26,1.1-1.24,1.86-2.34,1.86h-1.97c-1.1,0-2.08-.77-2.34-1.86l-1.02-4.28c-.69-2.89-1.32-7.17-1.65-9.65h-.04c.22,2.34.51,6.98.51,10.49v7.42c0,1.06-.84,1.9-1.9,1.9h-1.65c-1.06,0-1.9-.84-1.9-1.9v-21.68c0-1.06.84-1.9,1.9-1.9h4.46c1.1,0,2.08.77,2.3,1.86l1.83,8.23c.55,2.52.62,4.06.77,5.92h.04c.15-1.86.29-3.62.73-5.92l1.54-8.23c.18-1.06,1.13-1.86,2.23-1.86h5.01c1.06,0,1.9.84,1.9,1.9v21.68Zm17.48,0c0,1.06-.84,1.9-1.9,1.9h-10.75c-1.06,0-1.9-.84-1.9-1.9v-21.68c0-1.06.84-1.9,1.9-1.9h10.09c1.06,0,1.9.84,1.9,1.9v1.57c0,1.06-.84,1.9-1.9,1.9h-5.59v4.28h3.98c1.06,0,1.9.84,1.9,1.9v1.39c0,1.06-.84,1.9-1.9,1.9h-3.98v5.19h6.25c1.06,0,1.9.84,1.9,1.9v1.64Zm16.23,0c0,1.06-.84,1.9-1.9,1.9h-10.75c-1.06,0-1.9-.84-1.9-1.9v-21.68c0-1.06.84-1.9,1.9-1.9h10.09c1.06,0,1.9.84,1.9,1.9v1.57c0,1.06-.84,1.9-1.9,1.9h-5.59v4.28h3.99c1.06,0,1.9.84,1.9,1.9v1.39c0,1.06-.84,1.9-1.9,1.9h-3.99v5.19h6.25c1.06,0,1.9.84,1.9,1.9v1.64Zm17.37-20.07c0,1.06-.84,1.9-1.9,1.9h-3.36v18.17c0,1.06-.84,1.9-1.9,1.9h-2.49c-1.06,0-1.9-.84-1.9-1.9v-18.17h-3.36c-1.06,0-1.9-.84-1.9-1.9v-1.61c0-1.06.84-1.9,1.9-1.9h13.02c1.06,0,1.9.84,1.9,1.9v1.61Zm8.67,22.45c-2.6,0-4.97-.59-6.73-1.32-1.06-.44-1.46-1.54-1.06-2.52l.58-1.5c.4-.95,1.5-1.39,2.41-.99,1.35.59,2.81.95,4.17.95,2.19,0,3.25-.99,3.25-2.52s-.8-1.97-2.82-2.52c-4.24-1.21-7.2-2.78-7.2-8.15s3.55-7.86,8.41-7.86c2.34,0,4.02.33,5.52.91.91.37,1.39,1.46.99,2.41l-.55,1.17c-.47.99-1.61,1.5-2.63,1.17-.84-.26-1.65-.37-2.74-.37-1.68,0-2.49.8-2.49,1.97,0,1.35.4,1.94,2.41,2.49,4.17,1.13,7.79,2.38,7.79,8.23,0,5.3-2.45,8.45-9.32,8.45Z"/>
</svg>