<?xml version="1.0" encoding="UTF-8"?>
<svg xmlns="http://www.w3.org/2000/svg" width="24" height="24" viewBox="0 0 24 24" fill="none">
  <path opacity="0.12" d="M12 22C16.9706 22 21 20.6569 21 19V5C21 5 20.5 8 12 8C3.5 8 3 5 3 5V19C3 20.6569 7.02944 22 12 22Z" fill="#32A9C2"></path>
  <path d="M21 12C21 13.6569 16.9706 15 12 15C7.02944 15 3 13.6569 3 12M21 5C21 6.65685 16.9706 8 12 8C7.02944 8 3 6.65685 3 5M21 5C21 3.34315 16.9706 2 12 2C7.02944 2 3 3.34315 3 5M21 5V19C21 20.6569 16.9706 22 12 22C7.02944 22 3 20.6569 3 19V5" stroke="#32A9C2" stroke-width="1.5" stroke-linecap="round" stroke-linejoin="round"></path>
</svg>
