<?xml version="1.0" encoding="UTF-8"?>
<svg xmlns="http://www.w3.org/2000/svg" width="63" height="34" viewBox="0 0 63 34" fill="none">
  <g clip-path="url(#clip0_1307_28466)">
    <path d="M12.6208 28.0925H8.01701C6.0515 28.0925 5.31774 26.3463 5.31774 23.939L5.31446 11.3831H0V23.939C0 29.3339 3.74633 33.4002 8.7145 33.4002H17.9435V11.3831H12.6208V28.0925Z" fill="#3E5744"></path>
    <path d="M27.085 16.6909H31.6887C33.6544 16.6909 34.3881 18.4372 34.3881 20.8444L34.3899 33.4002H39.7042V20.8444C39.7042 15.4495 35.9579 11.3831 30.9897 11.3831H21.7607V33.4002H27.0834V16.6909H27.085Z" fill="#3E5744"></path>
    <path d="M43.5264 33.4002H48.9332V9.61212L43.5264 11.8582V33.4002Z" fill="#3E5744"></path>
    <path d="M62.7149 29.0873L62.6769 29.089C62.2763 29.1416 61.8425 29.1662 61.3906 29.1662C60.2117 29.1662 59.374 28.8423 58.8993 28.2043C58.4061 27.54 58.1556 26.389 58.1556 24.7825V15.9773H62.9967V11.3831H58.1556V5.78101L52.7503 8.02712V24.8236C52.7503 26.2213 52.8742 27.4825 53.1181 28.5743C53.3655 29.6875 53.8008 30.6512 54.4109 31.437C55.0243 32.2313 55.865 32.8462 56.9089 33.2622C57.9377 33.6734 59.2324 33.8805 60.7525 33.8805C61.4582 33.8805 62.131 33.8361 62.7543 33.7505L62.9985 33.7159V29.0873H62.7149Z" fill="#3E5744"></path>
    <path d="M43.5264 0.119629V7.68834L48.9332 5.44222V0.119629H43.5264Z" fill="#3E5744"></path>
  </g>
  <defs>
    <clipPath id="clip0_1307_28466">
      <rect width="63" height="33.7608" fill="white" transform="translate(0 0.119629)"></rect>
    </clipPath>
  </defs>
</svg>
