<?xml version="1.0" encoding="UTF-8"?>
<svg xmlns="http://www.w3.org/2000/svg" width="77" height="25" viewBox="0 0 77 25" fill="none">
  <path fill-rule="evenodd" clip-rule="evenodd" d="M56.2104 1.86384C54.99 1.40734 53.0776 0.916748 50.6881 0.916748C44.5999 0.916748 40.3097 3.97328 40.2737 8.3509C40.2404 11.5904 43.3354 13.394 45.6735 14.4738C48.071 15.5761 48.8783 16.281 48.8657 17.2667C48.8504 18.777 46.9515 19.4667 45.1803 19.4667C42.7135 19.4667 41.4041 19.1268 39.38 18.2855L38.5854 17.9268L37.7205 22.9708C39.1614 23.5986 41.8208 24.1448 44.5846 24.1726C51.0625 24.1726 55.2681 21.1519 55.3149 16.4756C55.3374 13.9124 53.6967 11.9617 50.1428 10.3554C47.9873 9.31234 46.6689 8.61547 46.6833 7.56075C46.6833 6.62622 47.7983 5.62262 50.2103 5.62262C52.228 5.59123 53.6859 6.0298 54.8226 6.4872L55.3761 6.7455L56.2104 1.86384ZM27.7016 23.8394L31.5544 1.31096H37.7156L33.861 23.8394H27.7016ZM67.2516 1.33212H72.0133L77 23.8444H71.2816C71.2816 23.8444 70.7174 21.2579 70.5329 20.4695C70.0573 20.4695 68.0743 20.467 66.2071 20.4646L66.2032 20.4646L66.1952 20.4646C64.5371 20.4625 62.973 20.4605 62.641 20.4605C62.4017 21.0695 61.3442 23.8444 61.3442 23.8444H54.8725L64.0234 3.2003C64.6732 1.73212 65.7756 1.33212 67.2516 1.33212ZM64.4119 15.8517C64.9222 14.5539 66.8679 9.55295 66.8679 9.55295C66.8499 9.58228 66.9697 9.27218 67.1333 8.84877L67.1334 8.84862L67.1335 8.84837C67.3051 8.40425 67.5248 7.83557 67.6842 7.40316L68.0999 9.34577C68.0999 9.34577 69.2807 14.7225 69.5282 15.8517H64.4119ZM16.5018 16.6887L22.5334 1.32624H29.06L19.3601 23.8107L12.8399 23.8197L7.32486 4.1155C11.2361 6.06709 14.7361 9.96667 15.8584 13.5667L16.5018 16.6887Z" fill="#3E5744"></path>
  <path fill-rule="evenodd" clip-rule="evenodd" d="M10.9048 1.31097H0.967335L0.889038 1.77914C8.61977 3.64552 13.7352 8.15139 15.8582 13.5667L13.6974 3.21234C13.3248 1.78542 12.2421 1.3603 10.9048 1.31097Z" fill="#3E5744" fill-opacity="0.7"></path>
</svg>
